<?xml version="1.0" standalone="no"?><!DOCTYPE svg PUBLIC "-//W3C//DTD SVG 1.1//EN" "http://www.w3.org/Graphics/SVG/1.1/DTD/svg11.dtd"><svg t="1585296286511" class="icon" viewBox="0 0 1024 1024" version="1.1" xmlns="http://www.w3.org/2000/svg" p-id="1894" xmlns:xlink="http://www.w3.org/1999/xlink" width="32" height="32"><defs><style type="text/css"></style></defs><path d="M880.2 356.3c21.1 49.3 31.8 101.1 31.8 155.4s-10.6 106.2-31.8 155.7c-21.1 49.4-49.6 92.1-85.1 127.7-35.6 35.7-78.1 64-127.6 85.2C618 901.3 566.2 912 512 912s-106.1-10.6-155.5-31.7c-49.5-21-92-49.4-127.6-85.2-35.6-35.6-64-78.1-85.1-127.7C122.6 617.9 112 566 112 511.7c0-54.4 10.6-106.1 31.8-155.4s49.5-91.8 85.1-127.4 78.1-64 127.6-85.2C406 122.7 457.8 112 512 112s106.1 10.6 155.5 31.7c49.5 21 92 49.4 127.6 85.2 35.5 35.6 63.9 78.1 85.1 127.4zM274.9 666.9l393.3-391.3c-46.9-31.5-98.9-47.2-156.2-47.2-51.4 0-98.8 12.7-142.2 37.9-43.4 25.1-77.8 59.7-103.1 103.2s-38 91.1-38 142.3c-0.2 56 15.2 107.8 46.2 155.1z m520.4-155.2c0-55.7-15.1-106.7-45.4-153.1L357.2 749.3c47.5 30.8 99.2 46.1 154.7 46.1 38.6 0 75.3-7.6 110.2-22.6 34.9-15 65.1-35.3 90.4-60.5 25.3-25.2 45.5-55.5 60.5-90.6 14.8-34.8 22.3-71.5 22.3-110z" p-id="1895"></path></svg>